<svg width="60" height="60" viewBox="0 0 246 229" fill="none" xmlns="http://www.w3.org/2000/svg">
<path d="M1 165V1H116V53.5H54.119V111.7H116V143.974V165H111.619H1Z" fill="black" stroke="black"/>
<path d="M116 111.622V54H145.729H159.211C166.162 54 173.086 54.8585 179.826 56.556L180.158 56.6395C188.009 58.6169 195.525 61.7447 202.462 65.9214C208.463 69.5349 213.976 73.9014 218.869 78.9146L219.412 79.4716C225.438 85.6459 230.525 92.6712 234.51 100.323L235.486 102.196C239.796 110.471 242.638 119.431 243.887 128.677C244.956 136.596 244.844 144.631 243.553 152.517L242 162L238.788 171.815C236.765 177.996 233.985 183.903 230.511 189.401C226.853 195.19 222.455 200.478 217.43 205.131L217.1 205.437C213.375 208.886 209.338 211.983 205.042 214.688L198 219.122L195.569 220.244C188.551 223.483 181.15 225.815 173.544 227.183C168.224 228.14 162.83 228.622 157.424 228.622H116V170.122H155.587C159.174 170.122 162.739 169.563 166.154 168.465L167.622 167.993C170.19 167.168 172.609 165.933 174.783 164.336C177.886 162.057 180.422 159.094 182.194 155.677L182.914 154.289C184.133 151.937 185.041 149.438 185.615 146.852L185.642 146.735C186.538 142.703 186.591 138.53 185.798 134.476L185.644 133.691C185.053 130.67 183.921 127.78 182.303 125.161C180.454 122.167 178.008 119.587 175.116 117.582L174.383 117.074C171.647 115.176 168.613 113.75 165.406 112.853L165.151 112.782C162.396 112.012 159.55 111.622 156.69 111.622H116Z" fill="black"/>
</svg>
